<?xml version="1.0" encoding="utf-8"?>
<!-- Generator: Adobe Illustrator 19.2.1, SVG Export Plug-In . SVG Version: 6.00 Build 0)  -->
<svg version="1.1" id="Logos" xmlns="http://www.w3.org/2000/svg" xmlns:xlink="http://www.w3.org/1999/xlink" x="0px" y="0px"
	 viewBox="0 0 200 65.1" style="enable-background:new 0 0 200 65.1;" xml:space="preserve">
<style type="text/css">
	.st0{fill:#E6B711;}
	.st1{fill:url(#SVGID_1_);}
	.st2{fill:url(#SVGID_2_);}
	.st3{fill:url(#SVGID_3_);}
	.st4{fill:url(#SVGID_4_);}
	.st5{fill:url(#SVGID_5_);}
	.st6{fill:url(#SVGID_6_);}
	.st7{fill:url(#SVGID_7_);}
	.st8{fill:url(#SVGID_8_);}
	.st9{fill:url(#SVGID_9_);}
	.st10{fill:url(#SVGID_10_);}
	.st11{fill:url(#SVGID_11_);}
	.st12{fill:none;}
	.st13{fill:url(#SVGID_12_);}
	.st14{fill:url(#SVGID_13_);}
	.st15{fill:url(#SVGID_14_);}
	.st16{fill:url(#SVGID_15_);}
	.st17{fill:url(#SVGID_16_);}
	.st18{fill:#B79257;}
	.st19{fill:#FFFFFF;}
</style>
<g>
	<g>
		<g>
			<g>
				<g>
					<g>
						<g>
							<path class="st0" d="M66.7,11.5c-1.3-0.2-3.4,0-5,0.4c-0.5,0.1-1.1,0-1.5,0.3c0,0-0.1-2.3-3.4-2.5c0,0,0.5,0.3,0.8,1.4
								c0.3,1.1-0.4,2.1-1.6,2.1c-0.1,0-0.1,0-0.2,0c0,0,0,0-0.1,0c-1.3,0-2.5,0.5-3.6,1.1c-0.7,0.4-2.4,1.6-3,2.7
								c0.6-0.5,1.5-0.9,2.2-0.9c0.3,0,0.7,0,0.9,0.2c-0.6,0.2-1.5,0.5-2.1,1.1c-2,1.7-2.5,3.7-2.5,3.7c2.8-1.9,3.6-0.8,3.6-0.8
								c0,0-0.1,0.6-0.7,1.3c-0.5,0.7-1.3,1-2.1,1.1C47,23,45.9,22.5,45,21.4c-0.9-1.2-0.6-3,0-4.3c0.7-1.5,1.8-2.8,3-3.9
								c0,0,0,0,0,0C46.7,13.3,19,14.4,15.4,0c0,0-2.1,0.1-3.8,1.9C10.8,2.7,9.4,5.5,11,8.6l-0.1,0.1c0,0-1.6-0.5-2.5-3.5
								c0,0-0.7,1.6-0.4,3.8c0.2,1.7,1.8,4.4,3.5,5c0,0,0,0.2,0,0.2c-1.3,0.2-4.3-1.6-4.3-1.6l0.1,0.4c2.5,6.5,8.2,6.6,8.5,6.7
								l0,0.2c-0.5,0.3-3.7,0.2-6.6-1.1L9,18.7L9.2,19c0.8,1.4,3.2,2.8,5.1,3.5c2.8,1,5.6,1.5,8.1,1.7v0.2c0,0-0.9,0.4-2.9,0.4
								c-2,0-5-0.4-5.2-0.5c0,0,0.3,0.3,1.1,0.7c1.6,0.9,3.3,1.6,5.1,2.1c2.7,0.8,6.4,1.4,11.3,1.3c0.5,0,1,0,1.5,0
								c0.3,0,0.7,0,1-0.1c0,0.1,0,0.3,0,0.4c-1.7,0.4-3.1,0.6-3.8,0.7c-3.6,0.4-8.4,1.4-15.1,3.4c-1.8,0.5-14.6,4-15.3,7.6
								c-0.7,4,7.6,3.5,15.1,1.7c3.6-0.9,5.4-1.6,6.2-2c0,0,0,0,0,0c0,0,0,0,0,0h0c0.8-0.5-1-1-3.1-0.9c0,0,0,0,0,0v-0.1
								c4.7-1.6,6.4,0.8,6.4,0.8v0.2c-3.5,1-3.5,1.2-9.4,2.5c-1,6.5-5.5,7.5-5.5,7.5c1.1,5.1-5.7,11.1-6,12.3l0.7,2.8h6.1
								c1-2.8-3.3-3.2-3.3-3.2c0.5-1.8,1.6-3.5,2.8-5c1.1-1.3,2.4-2.5,3.7-3.5c0.7-0.5,1.3-1.1,2.1-1.5c0.7-0.4,1.5-0.7,2.3-1
								c0.6-0.3,1.3-0.5,1.9-0.8c1.2-0.5,2.3-1.1,3.5-1.7c0.9-0.5,1.7-1,2.5-1.7c0.5-0.5,1.1-1,1.4-1.6c0.3-0.5,0.5-1,0.6-1.5
								c0.1-0.4,0.1-0.9,0.1-1.3c0-0.4-0.1-0.7-0.2-1.1c-0.1-0.3-0.2-0.5-0.3-0.8c-0.1-0.2-0.2-0.3-0.3-0.5
								c-0.1-0.1-0.1-0.2-0.2-0.2c0,0-0.1-0.1-0.1-0.1l0.1-0.1c1,0.7,5.8,4.3,10.8,4.7c-0.5-3.6,0.8-6.6,1.7-7.9
								c3.4-4.5-6.5-4.6-14-3.7c-3.3,0.4-6.6,1.4-8,1.8c-0.9,1.2-1.5,2.5-1.8,3.9c-0.2,0.7-0.3,1.5-0.3,2.2c0,0.2,0,0.5,0,0.7
								c0,0,0,0.1,0,0.1l-0.2,0C12,42.1,1.2,44,1.1,40.8c-0.1-3,12.3-6.3,16.2-7.2c19.7-4.8,24.8-1,25.6,1.7c-3.4,0.8-4.7,8.3-4.8,9
								c-0.4,4.6-5.1,16.6-5.1,16.6l1.4-0.7l0.1-0.1l0,3.5c-3.2,0.1-2.7,1.6-2.7,1.6h10.3c0-0.1,0-0.2,0-0.3c0.1-0.3,0.6-0.4,1-0.3
								c0.3,0.1,0.4,0.3,0.5,0.5h0.2c0-0.9-0.4-1.4-1.9-1.2c-0.2,0,0-0.3-1.1-0.3c0,0-1.4,0-2.5,0c-1.9,0-2.2-2.7-2.2-3.5
								c0,0,0,0,0.1-0.1c0.7-0.9,9.1-11.1,12.2-13.4c2.7-2,6.3-2.9,8.7-5.2c1-0.9,1.7-2.1,2.2-3.3c0.2-0.5,1.8-3.9,1.6-9.8
								c-0.1-1.4-0.2-1.8,0-2.2c0.1-0.4,1,0.4,1.1,1.7c0,0.3,0,0.6,0,0.8c0.3-0.9,0.5-1.8,0.6-2.9c0.3-3.6-1.2-5.7-1.4-5.9
								c1.1,0.3,1.9,2.1,1.9,2.1c0.2-1.1-0.1-2.6-0.4-3.6c-0.4-1.2-0.4-2-0.3-2.5c0.8-0.2,1.6-0.6,2.4-1c1.2-0.6,2.2-0.7,2.8-0.6
								c1,0.1,1.1,1.5,1.1,1.5c0,0,0.2-1,0.2-1.8C69.1,13.1,68.6,11.8,66.7,11.5z M42.7,17.5c-0.2,0.4-0.4,0.7-0.6,1.1
								c-0.2,0.5-0.3,1.1-0.4,1.6c0,0.2,0,0.4,0,0.6c0,0.5,0.1,1.1,0.2,1.6c0,0.2,0.1,0.3,0.1,0.5L42,23c-0.1-0.1-0.1-0.2-0.1-0.3
								c-0.4-0.7-0.6-1.5-0.7-2.2c0-0.2,0-0.4-0.1-0.7c0-0.6,0-1.2,0.2-1.8c0.1-0.3,0.2-0.6,0.3-0.9c0,0,0-0.1,0-0.1c0,0,0,0,0,0
								l0,0l0,0c-0.1,0-25.8-0.1-28.3-13.8l0.2-0.1c0.7,2.5,5.2,12.3,31,12.2c-0.2,0.2-0.5,0.4-0.7,0.6
								C43.5,16.4,43.1,16.9,42.7,17.5z M57.4,27.5c0,0-0.1,0-0.1,0c0-0.1,0-0.2,0-0.3c-0.6-3.1-6,4.7-6.4,5.1l-0.1-0.1
								c0,0,0-0.1,0.1-0.1c1.6-3.2,2-5.1,1.8-5.9v0c0,0,0-0.1,0-0.1c0,0,0,0,0,0c0,0,0-0.1,0-0.1c0,0,0,0,0,0c0,0,0-0.1,0-0.1
								c0,0,0,0,0,0c0,0,0,0,0-0.1c0,0,0,0,0,0c0,0,0,0-0.1,0c0,0,0,0,0,0c0,0,0,0-0.1,0c0,0,0,0,0,0c0,0,0,0-0.1,0c0,0,0,0,0,0
								c0,0,0,0-0.1,0c0,0,0,0,0,0c0,0,0,0,0,0c0,0,0,0-0.1,0c0,0,0,0,0,0c0,0-0.1,0-0.1,0c0,0,0,0,0,0c-0.1,0-0.3,0.1-0.4,0.1
								c-0.1,0-0.1,0-0.2,0c-0.1,0-0.1,0-0.2,0c-0.1,0-0.2,0-0.3,0.1c0,0,0,0,0,0c-3.6,0.7-5.6-0.2-6.6-1.3c0,0,0,0,0,0
								c-1.2-1.3-1.1-3-1.1-3h0.1c0.5,4.7,7.5,3.3,9.7,2.8c1.7-0.4,0.8,2.8,0.7,3.1c0,0,0,0,0,0l0.1,0.1l0,0l0,0
								c0.4-0.4,1.7-1.5,2.4-1.8c0.2-0.1,0.4-0.1,0.6-0.1c0.2,0,0.3,0.1,0.4,0.2c0.3,0.2,0.4,0.6,0.4,0.9
								C57.4,27,57.4,27.3,57.4,27.5z M63.9,12.9c0,0-1.2,0.4-1.2,0.4c0,0.1,0.1,0.7-0.4,0.9c-0.7,0.2-1.1-0.6-1.1-0.6
								c0,0,2.7-0.9,2.8-0.9L63.9,12.9z M20.7,61.8c-1.9-5.8,1-9.5,3.2-11.7c0.6-0.6,1.1-1.1,1.6-1.7c-2.4,1.3-6,2.2-8.7,3.8
								c2.2,3.7,0.5,9.4,0.8,10.3l2.6,2.8h5.6C25.8,61.9,20.7,61.8,20.7,61.8z M63.7,64c-0.3,0-0.1-0.3-1.1-0.3c0,0-2.4,0-3.4,0
								c-1.1,0-1.1-1.4-1.4-2.3c0,0,0-0.1,0-0.1l1.6,0.6c-3-9.2-3.6-14.4-3.5-17.3c-2.2,0.2-5.1,1.2-6.7,2.4
								c-0.4,0.3-0.9,0.7-1.3,1.1c3.5,3.6,6.3,10.2,7.4,12.9c0.3,0.8,0.5,1.3,0.5,1.3l0.5,1.4c-3.2,0.1-2.7,1.6-2.7,1.6h10.3
								c0-0.1,0-0.1,0-0.2c0.1-0.3,0.6-0.4,1-0.3c0.2,0.1,0.4,0.3,0.5,0.5h0.2C65.5,64.3,65,63.8,63.7,64z M21.3,40.2
								C21.3,40.2,21.3,40.2,21.3,40.2C21.3,40.2,21.3,40.2,21.3,40.2C21.3,40.2,21.3,40.2,21.3,40.2z"/>
						</g>
					</g>
					<g>
						
							<radialGradient id="SVGID_1_" cx="3524.4072" cy="37.5535" r="24.4446" fx="3528.5508" fy="42.2469" gradientTransform="matrix(0.2319 0 0 0.2319 -760.827 0)" gradientUnits="userSpaceOnUse">
							<stop  offset="0" style="stop-color:#FFF9CC"/>
							<stop  offset="0.1161" style="stop-color:#FAF0BB"/>
							<stop  offset="0.3456" style="stop-color:#EED98E"/>
							<stop  offset="0.3708" style="stop-color:#EDD689"/>
							<stop  offset="0.6854" style="stop-color:#EDBE1C"/>
							<stop  offset="1" style="stop-color:#C18F2E"/>
						</radialGradient>
						<path class="st1" d="M56.8,9.7c0,0,0.5,0.3,0.8,1.4c0.3,1.1-0.4,2.1-1.6,2.1c-0.1,0-0.1,0-0.2,0c0,0,0,0-0.1,0
							c3.5,0.8,4.5-1,4.5-1C60.2,12.2,60.1,9.8,56.8,9.7z"/>
						
							<radialGradient id="SVGID_2_" cx="3393.9905" cy="261.9324" r="43.422" gradientTransform="matrix(0.2319 0 0 0.2319 -760.827 0)" gradientUnits="userSpaceOnUse">
							<stop  offset="0" style="stop-color:#EDBE1C"/>
							<stop  offset="0.5798" style="stop-color:#C18F2E"/>
							<stop  offset="1" style="stop-color:#A47D2C"/>
						</radialGradient>
						<path class="st2" d="M20.7,61.8c-1.9-5.8,1-9.5,3.2-11.7c0.6-0.6,1.1-1.1,1.6-1.7c-2.4,1.3-6,2.2-8.7,3.8
							c2.2,3.7,0.5,9.4,0.8,10.3l2.6,2.8h5.6C25.8,61.9,20.7,61.8,20.7,61.8z"/>
						<g>
							
								<radialGradient id="SVGID_3_" cx="3538.0486" cy="257.0916" r="53.1521" gradientTransform="matrix(0.2319 0 0 0.2319 -760.827 0)" gradientUnits="userSpaceOnUse">
								<stop  offset="0" style="stop-color:#EDBE1C"/>
								<stop  offset="0.5798" style="stop-color:#C18F2E"/>
								<stop  offset="1" style="stop-color:#A47D2C"/>
							</radialGradient>
							<path class="st3" d="M63.7,64c-0.3,0-0.1-0.3-1.1-0.3c0,0-2.4,0-3.4,0c-1.1,0-1.1-1.4-1.4-2.3c0,0,0-0.1,0-0.1l1.6,0.6
								c-3-9.2-3.6-14.4-3.5-17.3c-2.2,0.2-5.1,1.2-6.7,2.4c-0.4,0.3-0.9,0.7-1.3,1.1c3.5,3.6,6.3,10.2,7.4,12.9
								c0.3,0.8,0.5,1.3,0.5,1.3l0.5,1.4c-3.2,0.1-2.7,1.6-2.7,1.6h10.3c0-0.1,0-0.1,0-0.2c0.1-0.3,0.6-0.4,1-0.3
								c0.2,0.1,0.4,0.3,0.5,0.5h0.2C65.5,64.3,65,63.8,63.7,64z"/>
						</g>
						
							<radialGradient id="SVGID_4_" cx="3553.9375" cy="66.0042" r="29.2308" gradientTransform="matrix(-0.2255 5.426493e-02 -2.914103e-02 -0.1211 866.636 -169.5548)" gradientUnits="userSpaceOnUse">
							<stop  offset="4.365410e-03" style="stop-color:#C18F2E"/>
							<stop  offset="0.316" style="stop-color:#D2A127"/>
							<stop  offset="0.7134" style="stop-color:#EDBE1C"/>
							<stop  offset="0.932" style="stop-color:#F0D989"/>
							<stop  offset="0.9509" style="stop-color:#F4E29D"/>
							<stop  offset="1" style="stop-color:#FFF9CC"/>
						</radialGradient>
						<path class="st4" d="M66.7,11.5c-1.3-0.2-3.4,0-5.1,0.4c-0.2,0.6-0.8,1.8-2.2,2.5c0.1,0.3,0.6,1.2,1.5,1.6
							c1.4,0.6,2.7-0.2,3.9-0.8c1.2-0.6,2.2-0.7,2.8-0.6c1,0.1,1.1,1.5,1.1,1.5c0,0,0.2-1,0.2-1.8C69.1,13.1,68.6,11.8,66.7,11.5z
							 M63.9,12.9c0,0-1.2,0.4-1.2,0.4c0,0.1,0.1,0.7-0.4,0.9c-0.7,0.2-1.1-0.6-1.1-0.6c0,0,2.7-0.9,2.8-0.9L63.9,12.9z"/>
						
							<radialGradient id="SVGID_5_" cx="3488.1038" cy="245.9721" r="142.2731" gradientTransform="matrix(-8.365428e-02 0.2163 -0.1435 -5.549835e-02 375.2069 -683.7865)" gradientUnits="userSpaceOnUse">
							<stop  offset="0" style="stop-color:#C18F2E"/>
							<stop  offset="0.4493" style="stop-color:#C18F2E"/>
							<stop  offset="0.7257" style="stop-color:#F0BF19"/>
							<stop  offset="1" style="stop-color:#F4E999"/>
						</radialGradient>
						<path class="st5" d="M57.2,27.2c-0.6-3.1-6,4.7-6.4,5.1l-0.1-0.1c0,0,0,0,0,0c-2.2,1.8-5.1,2.8-7.9,3c0,0,0,0.1,0,0.1
							c-3.4,0.8-4.7,8.3-4.8,9c-0.4,4.6-5.1,16.6-5.1,16.6l1.4-0.7l0.1-0.1l0,3.5c-3.2,0.1-2.7,1.6-2.7,1.6h10.3c0-0.1,0-0.2,0-0.3
							c0.1-0.3,0.6-0.4,1-0.3c0.3,0.1,0.4,0.3,0.5,0.5h0.2c0-0.9-0.4-1.4-1.9-1.2c-0.2,0,0-0.3-1.1-0.3c0,0-1.4,0-2.5,0
							c-1.9,0-2.2-2.7-2.2-3.5c0,0,0,0,0.1-0.1c0.7-0.9,9.1-11.1,12.2-13.4c2.7-2,6.3-2.9,8.7-5.2c1-0.9,1.7-2.1,2.2-3.3
							C57.8,34.9,57.6,30.4,57.2,27.2z"/>
						
							<radialGradient id="SVGID_6_" cx="3527.4507" cy="56.8885" r="62.6346" gradientTransform="matrix(0.2319 0 0 0.2319 -760.827 0)" gradientUnits="userSpaceOnUse">
							<stop  offset="0" style="stop-color:#FFF9CC"/>
							<stop  offset="0.1161" style="stop-color:#FAF0BB"/>
							<stop  offset="0.3456" style="stop-color:#EED98E"/>
							<stop  offset="0.3708" style="stop-color:#EDD689"/>
							<stop  offset="0.6854" style="stop-color:#EDBE1C"/>
							<stop  offset="0.8974" style="stop-color:#C18F2E"/>
							<stop  offset="1" style="stop-color:#B5882D"/>
						</radialGradient>
						<path class="st6" d="M43.1,21.5c0.5,4.7,7.5,3.3,9.7,2.8c1.7-0.4,0.8,2.8,0.7,3.1c0.2-0.2,0.3-0.3,0.4-0.5
							c0.2-0.3,0.2-0.5,0.3-0.7c0.1-0.3,0.2-0.6,0.2-0.9c0.2-0.9,0.2-1.8,0.1-2.9c-0.1-0.9-0.3-1.8-0.5-2.6
							c-0.2-0.8-0.5-1.6-0.9-2.3c-0.2-0.4-0.6-0.9-1-1.2c-0.6,0.2-1.5,0.5-2.1,1.1c-2,1.7-2.5,3.7-2.5,3.7c2.8-1.9,3.6-0.8,3.6-0.8
							c0,0-0.1,0.6-0.7,1.3c-0.5,0.7-1.3,1-2.1,1.1C47,23,45.9,22.5,45,21.4c-0.9-1.2-0.6-3,0-4.3c0.7-1.5,1.8-2.8,3-3.9
							c-2.9,1.7-5.2,4.9-5.1,8.3H43.1z"/>
						
							<radialGradient id="SVGID_7_" cx="3446.5222" cy="192.8154" r="124.7142" gradientTransform="matrix(0.2309 2.174824e-02 -9.426841e-03 0.1001 -755.4871 -49.5363)" gradientUnits="userSpaceOnUse">
							<stop  offset="0.4514" style="stop-color:#C18F2E"/>
							<stop  offset="0.7406" style="stop-color:#F0BF19"/>
							<stop  offset="0.8754" style="stop-color:#F0BF19"/>
							<stop  offset="1" style="stop-color:#F4E999"/>
						</radialGradient>
						<path class="st7" d="M25.5,32.7c-3.3,0.4-6.6,1.4-8,1.8l0,0c1.1,0,4.9,0.4,7.4,2.2c1.8,1.4,2,2.8,2,2.8
							c1,0.7,5.8,4.3,10.8,4.7c-0.5-3.6,0.8-6.6,1.7-7.9C42.9,31.9,33,31.8,25.5,32.7z"/>
						
							<radialGradient id="SVGID_8_" cx="3341.8228" cy="239.918" r="99.6039" fx="3350.6482" fy="273.8565" gradientTransform="matrix(0.1447 -0.1813 0.1356 0.1083 -501.8152 635.4022)" gradientUnits="userSpaceOnUse">
							<stop  offset="0" style="stop-color:#C1912E"/>
							<stop  offset="0.457" style="stop-color:#C1912E"/>
							<stop  offset="0.7765" style="stop-color:#F0BF19"/>
							<stop  offset="1" style="stop-color:#F4E999"/>
						</radialGradient>
						<path class="st8" d="M21.3,40.2C21.3,40.2,21.3,40.2,21.3,40.2C21.3,40.2,21.3,40.2,21.3,40.2C21.3,40.2,21.3,40.2,21.3,40.2z
							"/>
						
							<radialGradient id="SVGID_9_" cx="3401.384" cy="190.0755" r="188.5694" gradientTransform="matrix(0.225 -5.612564e-02 1.901391e-02 7.623114e-02 -740.9921 220.4964)" gradientUnits="userSpaceOnUse">
							<stop  offset="0.6018" style="stop-color:#C1912E"/>
							<stop  offset="0.798" style="stop-color:#F0BF19"/>
							<stop  offset="1" style="stop-color:#F4E999"/>
						</radialGradient>
						<path class="st9" d="M21.4,40.2L21.4,40.2C21.3,40.2,21.3,40.2,21.4,40.2C21.3,40.2,21.4,40.2,21.4,40.2z"/>
						
							<radialGradient id="SVGID_10_" cx="3400.9639" cy="190.1198" r="186.642" gradientTransform="matrix(0.225 -5.612564e-02 1.901391e-02 7.623114e-02 -740.9958 220.4798)" gradientUnits="userSpaceOnUse">
							<stop  offset="0.6018" style="stop-color:#C18F2E"/>
							<stop  offset="0.798" style="stop-color:#F0BF19"/>
							<stop  offset="1" style="stop-color:#F4E999"/>
						</radialGradient>
						<path class="st10" d="M50.8,32.1L50.8,32.1c1.6-3.2,2-5.1,1.8-5.9v0c0,0,0-0.1,0-0.1c0,0,0,0,0,0c0,0,0-0.1,0-0.1c0,0,0,0,0,0
							c0,0,0-0.1,0-0.1c0,0,0,0,0,0c0,0,0,0,0-0.1c0,0,0,0,0,0c0,0,0,0-0.1,0c0,0,0,0,0,0c0,0,0,0-0.1,0c0,0,0,0,0,0c0,0,0,0-0.1,0
							c0,0,0,0,0,0c0,0,0,0-0.1,0c0,0,0,0,0,0c0,0,0,0,0,0c0,0,0,0-0.1,0c0,0,0,0,0,0c0,0-0.1,0-0.1,0c0,0,0,0,0,0
							c-0.1,0-0.3,0.1-0.4,0.1c-0.1,0-0.1,0-0.2,0c-0.1,0-0.1,0-0.2,0c-0.1,0-0.2,0-0.3,0.1c0,0,0,0,0,0c-3.6,0.7-5.6-0.2-6.6-1.3
							c-5.3,3.6-11.6,4.7-13.7,4.9c-3.6,0.4-8.4,1.4-15.1,3.4c-1.8,0.5-14.6,4-15.3,7.6c-0.7,4,7.6,3.5,15.1,1.7
							c3.6-1,5.5-1.6,6.2-2.1c-2.9,0.7-3.9,0.9-6.3,1.3C12,42.1,1.2,44,1.1,40.8c-0.1-3,12.3-6.3,16.2-7.2c19.7-4.8,24.8-1,25.6,1.7
							c0,0,0,0,0-0.1c2.8-0.2,5.7-1.3,7.9-3c0,0,0,0,0,0l0,0l0,0l0,0C50.7,32.2,50.7,32.1,50.8,32.1z"/>
						
							<radialGradient id="SVGID_11_" cx="3341.4482" cy="238.8051" r="98.454" fx="3350.1719" fy="272.3518" gradientTransform="matrix(0.1447 -0.1813 0.1356 0.1083 -501.6969 635.1967)" gradientUnits="userSpaceOnUse">
							<stop  offset="0" style="stop-color:#C18F2E"/>
							<stop  offset="0.457" style="stop-color:#C18F2E"/>
							<stop  offset="0.7765" style="stop-color:#F0BF19"/>
							<stop  offset="1" style="stop-color:#F4E999"/>
						</radialGradient>
						<path class="st11" d="M18.3,39.2C18.2,39.2,18.2,39.2,18.3,39.2L18.3,39.2c4.7-1.7,6.3,0.7,6.3,0.7v0.2
							c-3.5,1-3.5,1.2-9.4,2.5c-1,6.5-5.5,7.5-5.5,7.5c1.1,5.1-5.7,11.1-6,12.3l0.7,2.8h6.1c1-2.8-3.3-3.2-3.3-3.2
							c0.5-1.8,1.6-3.5,2.8-5c1.1-1.3,2.4-2.5,3.7-3.5c0.7-0.5,1.3-1.1,2.1-1.5c0.7-0.4,1.5-0.7,2.3-1c0.6-0.3,1.3-0.5,1.9-0.8
							c1.2-0.5,2.3-1.1,3.5-1.7c0.9-0.5,1.7-1,2.5-1.7c0.5-0.5,1.1-1,1.4-1.6c0.3-0.5,0.5-1,0.6-1.5c0.1-0.4,0.1-0.9,0.1-1.3
							c0-0.4-0.1-0.7-0.2-1.1c-0.1-0.3-0.2-0.5-0.3-0.8c-0.1-0.2-0.2-0.3-0.3-0.5c-0.1-0.1-0.1-0.2-0.2-0.2c0,0-0.1-0.1-0.1-0.1
							l0.1-0.1c0,0-0.3-1.4-2-2.8c-2.4-1.9-6.2-2.2-7.4-2.2c-0.9,1.2-1.5,2.5-1.8,3.9c-0.2,0.7-0.3,1.5-0.3,2.2c0,0.2,0,0.5,0,0.7
							c0,0,0,0.1,0,0.1c2.2-0.4,3.2-0.6,6-1.3C22.1,39.7,20.3,39.2,18.3,39.2z"/>
						<path class="st12" d="M42.4,18.2c0,0.1-0.1,0.2-0.1,0.3C42.3,18.3,42.3,18.3,42.4,18.2z"/>
						<path class="st12" d="M42.6,17.7c0,0.1-0.1,0.2-0.1,0.2C42.6,17.8,42.6,17.8,42.6,17.7z"/>
						<path class="st12" d="M42.9,17.2c0,0.1-0.1,0.1-0.1,0.2C42.9,17.3,42.9,17.3,42.9,17.2z"/>
						
							<radialGradient id="SVGID_12_" cx="3407.8325" cy="22.9557" r="170.5121" gradientTransform="matrix(-0.2231 -6.325249e-02 3.682686e-02 -0.1299 789.0165 223.8597)" gradientUnits="userSpaceOnUse">
							<stop  offset="0" style="stop-color:#FFF9CC"/>
							<stop  offset="7.966173e-02" style="stop-color:#FAF0BB"/>
							<stop  offset="0.2372" style="stop-color:#EED98E"/>
							<stop  offset="0.2545" style="stop-color:#EDD689"/>
							<stop  offset="0.5394" style="stop-color:#EBBC1D"/>
							<stop  offset="0.7862" style="stop-color:#C18F2E"/>
						</radialGradient>
						<path class="st13" d="M40.7,17.6C40.7,17.6,40.7,17.6,40.7,17.6c0.2-0.1,0.3-0.2,0.5-0.3c0,0,0.1,0,0.1-0.1
							c0.2-0.1,0.3-0.2,0.4-0.2c0,0,0,0,0,0v0c-0.1,0-25.8-0.1-28.3-13.8l0.2-0.1c0.7,2.5,5.2,12.3,31,12.2c0.7-0.5,1.2-0.9,1.7-1.2
							c0.1-0.1,0.2-0.1,0.2-0.2c0,0,0.1-0.1,0.1-0.1c0.2-0.1,0.3-0.2,0.5-0.3c0.2-0.1,0.4-0.3,0.7-0.4c0,0,0.2,0,0.2,0
							C46.8,13.2,19,14.4,15.4,0c0,0-2.1,0.1-3.8,1.9C10.8,2.7,9.4,5.5,11,8.6l-0.1,0.1c0,0-1.6-0.5-2.5-3.5c0,0-0.7,1.6-0.4,3.8
							c0.2,1.7,1.8,4.4,3.5,5c0,0,0,0.2,0,0.2c-1.3,0.2-4.3-1.6-4.3-1.6l0.1,0.4c2.5,6.5,8.2,6.6,8.5,6.7l0,0.2
							c-0.5,0.3-3.7,0.2-6.6-1.1L9,18.7L9.2,19c0.8,1.4,3.2,2.8,5.1,3.5c2.8,1,5.6,1.5,8.1,1.7C28.6,23.6,35.5,20.4,40.7,17.6z"/>
						
							<radialGradient id="SVGID_13_" cx="3451.7163" cy="78.8958" r="151.737" gradientTransform="matrix(0.2166 -8.285789e-02 2.871465e-02 7.506608e-02 -710.2578 298.3766)" gradientUnits="userSpaceOnUse">
							<stop  offset="0.1379" style="stop-color:#C18F2E"/>
							<stop  offset="0.5369" style="stop-color:#E8B820"/>
							<stop  offset="1" style="stop-color:#EDD687"/>
						</radialGradient>
						<path class="st14" d="M48,13.2c0,0-0.2,0-0.2,0c-0.9,0.6-1.7,1-3.2,2.2c-0.2,0.2-0.5,0.4-0.7,0.6c-0.5,0.5-0.9,1-1.2,1.6
							c-0.2,0.4-0.4,0.7-0.6,1.1c-0.2,0.5-0.3,1.1-0.4,1.6c0,0.2,0,0.4,0,0.6c0,0.5,0.1,1.1,0.2,1.6c0,0.2,0.1,0.3,0.1,0.5L42,23
							c-0.1-0.1-0.1-0.2-0.1-0.3c-0.4-0.7-0.6-1.5-0.7-2.2c0-0.2,0-0.4-0.1-0.7c0-0.6,0-1.2,0.2-1.8c0.1-0.3,0.2-0.6,0.3-0.9
							c0,0,0-0.1,0-0.1c0,0,0,0,0,0c-5.2,3-12.7,6.6-19.2,7.2v0.2c0,0-0.9,0.4-2.9,0.4c-2,0-5-0.4-5.2-0.5c0,0,0.3,0.3,1.1,0.7
							c1.6,0.9,3.3,1.6,5.1,2.1c2.7,0.8,6.4,1.4,11.3,1.3c0.5,0,1,0,1.5,0c0.3,0,0.7,0,1-0.1c0,0.1,0,0.3,0,0.4
							c2.7-0.7,6.3-1.9,9.6-4c0.1-0.1,0.2-0.1,0.3-0.2c-1.2-1.3-1.1-3-1.1-3C42.8,18,45.2,14.9,48,13.2z"/>
						
							<radialGradient id="SVGID_14_" cx="3500.7319" cy="48.7927" r="47.0239" gradientTransform="matrix(0.2319 0 0 0.2319 -760.827 0)" gradientUnits="userSpaceOnUse">
							<stop  offset="0" style="stop-color:#FFF9CC"/>
							<stop  offset="0.1161" style="stop-color:#FAF0BB"/>
							<stop  offset="0.3456" style="stop-color:#EED98E"/>
							<stop  offset="0.3708" style="stop-color:#EDD689"/>
							<stop  offset="0.6854" style="stop-color:#EBBC1D"/>
							<stop  offset="1" style="stop-color:#C18F2E"/>
						</radialGradient>
						<path class="st15" d="M54.8,26.3c0.1-0.2,0.3-0.3,0.4-0.5c0.5-0.6,1-1.2,1.3-1.8c0.4-0.7,1.4-2.9,1.2-4.4c0,0-0.4-0.9-0.3-2
							c0.2-1.7,0.8-2.7,2-3.2c0.1,0,0.2-0.1,0.3-0.2c1.2-0.8,1.7-1.8,1.9-2.4c0,0,0,0,0,0c-0.5,0.1-1.1,0-1.5,0.3c0,0-1,1.8-4.5,1
							c-1.3,0-2.5,0.5-3.6,1.1c-0.7,0.4-2.4,1.6-3,2.7c0.6-0.5,1.5-0.9,2.2-0.9c0.3,0,0.7,0,0.9,0.2l0,0c0.1,0,0.1,0.1,0.2,0.1
							c0.1,0,0.1,0.1,0.1,0.1c0,0,0,0,0,0l0,0c0.3,0.2,0.5,0.5,0.6,0.8l0,0c0,0,0.1,0.1,0.1,0.1c0.2,0.4,0.4,0.7,0.5,1.1
							c0.1,0.2,0.1,0.4,0.2,0.6c0.1,0.2,0.1,0.4,0.2,0.6c0.2,0.9,0.4,1.7,0.5,2.6c0.1,1.2,0.1,2.1-0.1,2.9c-0.1,0.3-0.1,0.6-0.2,0.9
							c0,0.1-0.1,0.2-0.1,0.4c0,0.1-0.1,0.2-0.2,0.3c0,0,0,0.1-0.1,0.1c0,0,0,0,0,0c0,0,0,0,0,0c0,0,0,0,0,0c0,0,0,0,0,0
							c0,0,0,0,0,0c0,0,0,0,0,0.1c0,0,0,0,0,0c0,0,0,0,0,0.1c0,0,0,0,0,0c0,0,0,0-0.1,0.1c0,0,0,0,0,0c0,0,0,0-0.1,0.1c0,0,0,0,0,0
							c0,0,0,0,0,0c0,0,0,0,0,0l0.1,0.1l0,0l0,0C54,27.1,54.6,26.5,54.8,26.3z"/>
						
							<radialGradient id="SVGID_15_" cx="3556.3174" cy="94.6009" r="38.4167" gradientTransform="matrix(0.2319 0 0 0.2319 -760.827 0)" gradientUnits="userSpaceOnUse">
							<stop  offset="0" style="stop-color:#F0D989"/>
							<stop  offset="0.4233" style="stop-color:#EDBE1C"/>
							<stop  offset="1" style="stop-color:#C18F2E"/>
						</radialGradient>
						<path class="st16" d="M63.3,22.2c0.2-1.1-0.1-2.6-0.4-3.6c-0.4-1.2-0.4-2-0.3-2.5c-0.5,0.1-1,0.1-1.6-0.1
							c-0.9-0.4-1.4-1.3-1.5-1.6c-1.1,0.6-1.8,1.5-2,3.2c0,0,0,0,0,0c0,0,0,0,0,0c0,0.1,0,0.1,0,0.2c0,0,0,0,0,0
							c-0.1,1.1,0.3,1.8,0.3,1.8c0.6,1.5,1.4,1.8,2.5,3.1c1.5,1.7,1.8,3.8,1.8,5.2c0,0.3,0,0.6,0,0.9c0.3-0.9,0.5-1.8,0.6-2.9
							c0.3-3.6-1.2-5.7-1.4-5.9C62.5,20.4,63.3,22.2,63.3,22.2z"/>
						
							<radialGradient id="SVGID_16_" cx="3526.9329" cy="96.4449" r="72.1221" gradientTransform="matrix(2.865454e-02 0.2301 -0.1235 1.537502e-02 -32.0331 -790.7955)" gradientUnits="userSpaceOnUse">
							<stop  offset="0" style="stop-color:#9C782C"/>
							<stop  offset="5.738250e-02" style="stop-color:#A27C2C"/>
							<stop  offset="0.2223" style="stop-color:#B7892D"/>
							<stop  offset="0.2861" style="stop-color:#C18F2E"/>
							<stop  offset="0.4739" style="stop-color:#D2A127"/>
							<stop  offset="0.7134" style="stop-color:#EDBE1C"/>
							<stop  offset="0.932" style="stop-color:#EDD689"/>
							<stop  offset="0.9509" style="stop-color:#F2E09D"/>
							<stop  offset="1" style="stop-color:#FFF9CC"/>
						</radialGradient>
						<path class="st17" d="M60.3,22.7c-1.1-1.3-2-1.6-2.5-3.1c0.2,1.5-0.8,3.7-1.2,4.4c-0.4,0.7-0.9,1.2-1.3,1.8
							c-0.1,0.2-0.3,0.3-0.4,0.5c-0.2,0.2-0.7,0.8-1.2,1.2l0,0c0.4-0.4,1.7-1.5,2.4-1.8c0.2-0.1,0.4-0.1,0.6-0.1
							c0.2,0,0.3,0.1,0.4,0.2c0.3,0.2,0.4,0.6,0.4,0.9c0,0.3,0,0.5,0,0.8c0,0-0.1,0-0.1,0c0.4,3.1,0.6,7.5,2.2,10.7
							c0.2-0.5,1.8-3.9,1.6-9.8c-0.1-1.4-0.2-1.8,0-2.2c0.2-0.4,1,0.4,1.1,1.8c0,0,0,0,0-0.1C62,26.6,61.8,24.5,60.3,22.7z"/>
					</g>
				</g>
				<g>
					<g>
						<g>
							<path class="st18" d="M74.7,65.2c-0.1,0-0.1,0-0.2-0.1l-1.4-2.7H72v2.7c0,0.1-0.1,0.1-0.1,0.1h-1c-0.1,0-0.1-0.1-0.1-0.1
								v-7.5h2.6c1.7,0,2.4,0.9,2.4,2.2v0.5c0,0.9-0.4,1.6-1.3,2l1.5,2.9c0,0.1,0,0.1-0.1,0.1H74.7z M74.4,59.9
								c0-0.8-0.4-1.2-1.3-1.2H72v2.6h1.2c0.9,0,1.3-0.4,1.3-1.2V59.9z"/>
							<path class="st18" d="M78,65.2v-7.7h4.1c0.1,0,0.1,0.1,0.1,0.2v0.8c0,0.1,0,0.1-0.1,0.1h-2.9v2.1h2.6c0.1,0,0.1,0.1,0.1,0.1
								v0.8c0,0.1,0,0.1-0.1,0.1h-2.6v2.3h2.9c0.1,0,0.1,0.1,0.1,0.1v0.8c0,0.1,0,0.1-0.1,0.1H78z"/>
							<path class="st18" d="M90.5,65.2c-0.1,0-0.1-0.1-0.1-0.1v-4.7c0-0.5,0-1.1,0.1-1.5c0,0,0,0,0,0l-1.8,6.2
								c0,0.1-0.1,0.1-0.2,0.1h-1c-0.1,0-0.1-0.1-0.1-0.1l-1.8-6.2c0,0.1,0,0.2,0,0.3c0,0.4,0.1,0.9,0.1,1.4v4.6
								c0,0.1-0.1,0.1-0.1,0.1h-0.9c-0.1,0-0.1-0.1-0.1-0.1v-7.4c0-0.1,0-0.2,0.1-0.2h1.5c0.1,0,0.1,0,0.2,0.1l1.2,4
								c0.2,0.8,0.5,1.7,0.6,2.4c0.1-0.7,0.3-1.7,0.6-2.5c0.4-1.2,0.7-2.4,1.1-3.5c0-0.1,0.1-0.3,0.1-0.4c0.1-0.1,0.4-0.1,0.6-0.1h1
								c0.1,0,0.1,0.1,0.1,0.1v7.4c0,0.1-0.1,0.1-0.1,0.1H90.5z"/>
							<path class="st18" d="M99.7,62.5c0,1.7-0.9,2.8-2.9,2.8c-1.9,0-2.9-1-2.9-2.6v-2.4c0-1.7,0.9-2.8,2.9-2.8
								c1.9,0,2.9,1.1,2.9,2.6V62.5z M98.5,60.3c0-1-0.5-1.7-1.6-1.7c-1.1,0-1.6,0.6-1.6,1.7v2.4c0,1,0.5,1.7,1.6,1.7
								c1.1,0,1.6-0.6,1.6-1.7V60.3z"/>
							<path class="st18" d="M103.6,65.2c-0.1,0-0.1-0.1-0.2-0.1l-2.3-7.4c0-0.1,0-0.1,0.1-0.1h1.1c0.1,0,0.1,0,0.1,0.1l1,3.6
								c0.3,1,0.5,1.9,0.7,2.9h0c0.2-1,0.4-1.9,0.7-2.9l1.1-3.6c0-0.1,0.1-0.1,0.1-0.1h1c0.1,0,0.1,0.1,0.1,0.1l-2.3,7.4
								c0,0.1-0.1,0.1-0.2,0.1H103.6z"/>
							<path class="st18" d="M113.2,65.2c-0.1,0-0.1-0.1-0.2-0.1l-0.6-1.9H110l-0.6,1.9c0,0.1-0.1,0.1-0.2,0.1h-0.9
								c-0.1,0-0.1-0.1-0.1-0.2l2.3-7.3c0-0.1,0.1-0.2,0.2-0.2h1.1c0.1,0,0.2,0.1,0.2,0.2l2.3,7.3c0,0.1,0,0.2-0.1,0.2H113.2z
								 M111.3,58.9l-1,3.2h1.9L111.3,58.9z"/>
							<path class="st18" d="M116.2,65.2v-7.5c0-0.1,0.1-0.1,0.1-0.1h1c0.1,0,0.1,0,0.1,0.1v6.4h3.1c0.1,0,0.1,0.1,0.1,0.2v0.8
								c0,0.1,0,0.1-0.1,0.1H116.2z"/>
							<path class="st18" d="M122.9,63.2c0.1,0,0.2,0,0.2,0.1c0.1,0.6,0.6,1,1.4,1c0.6,0,1.2-0.3,1.2-1c0-0.7-0.4-1-1.5-1.4
								c-1.4-0.6-2.1-1.1-2.1-2.4c0-1.2,1-2,2.3-2c1.4,0,2.2,0.7,2.4,1.6c0,0.1,0,0.2-0.1,0.2l-0.8,0.3c-0.1,0-0.2,0-0.2-0.1
								c-0.2-0.6-0.7-0.9-1.3-0.9c-0.7,0-1.1,0.3-1.1,0.9c0,0.6,0.6,0.9,1.7,1.4c1.2,0.6,1.9,1.1,2,2.3c0,1.3-1,2.2-2.5,2.2
								c-1.6,0-2.3-0.8-2.5-1.7c0-0.1,0-0.2,0.1-0.2L122.9,63.2z"/>
							<path class="st18" d="M137.4,65.2c-0.1,0-0.1,0-0.2-0.1l-0.6-0.6c-0.6,0.5-1.3,0.8-2.3,0.8c-1.5,0-2.7-1-2.7-2.4
								c0-1.1,0.6-1.8,1.5-2.3c-0.5-0.6-0.8-1-0.8-1.6c0-0.8,0.6-1.6,1.8-1.6c1.3,0,1.8,0.9,2,1.6c0,0.1,0,0.2-0.1,0.2l-0.8,0.2
								c-0.1,0-0.2,0-0.2-0.1c-0.1-0.7-0.5-0.8-0.8-0.8c-0.4,0-0.6,0.3-0.6,0.6c0,0.4,0.5,0.8,0.9,1.4l2.1,2.4
								c0.1-0.3,0.1-0.6,0.1-0.9v-0.6c0-0.1,0-0.1,0.1-0.1h0.9c0.1,0,0.1,0.1,0.1,0.1v0.6c0,0.7-0.1,1.3-0.4,1.8l1.3,1.4
								c0.1,0.1,0,0.1-0.1,0.1H137.4z M133.8,61.4c-0.7,0.4-1,0.9-1,1.6c0,0.8,0.7,1.4,1.6,1.4c0.7,0,1.1-0.2,1.5-0.6L133.8,61.4z"
								/>
							<path class="st18" d="M143.7,63.2c0.1,0,0.2,0,0.2,0.1c0.1,0.6,0.6,1,1.4,1c0.6,0,1.2-0.3,1.2-1c0-0.7-0.4-1-1.5-1.4
								c-1.4-0.6-2.1-1.1-2.1-2.4c0-1.2,1-2,2.3-2c1.4,0,2.2,0.7,2.4,1.6c0,0.1,0,0.2-0.1,0.2l-0.8,0.3c-0.1,0-0.2,0-0.2-0.1
								c-0.2-0.6-0.7-0.9-1.3-0.9c-0.7,0-1.1,0.3-1.1,0.9c0,0.6,0.6,0.9,1.7,1.4c1.2,0.6,1.9,1.1,2,2.3c0,1.3-1,2.2-2.5,2.2
								c-1.6,0-2.3-0.8-2.5-1.7c0-0.1,0-0.2,0.1-0.2L143.7,63.2z"/>
							<path class="st18" d="M151.6,65.2c-0.1,0-0.1-0.1-0.1-0.1v-6.4h-2.1c-0.1,0-0.1-0.1-0.1-0.1v-0.8c0-0.1,0-0.1,0.1-0.1h5.4
								c0.1,0,0.1,0.1,0.1,0.1v0.8c0,0.1,0,0.1-0.1,0.1h-2.1v6.4c0,0.1-0.1,0.1-0.1,0.1H151.6z"/>
							<path class="st18" d="M162.1,62.5c0,1.7-0.9,2.8-2.9,2.8c-1.9,0-2.9-1-2.9-2.6v-2.4c0-1.7,0.9-2.8,2.9-2.8
								c1.9,0,2.9,1.1,2.9,2.6V62.5z M160.9,60.3c0-1-0.5-1.7-1.6-1.7c-1.1,0-1.6,0.6-1.6,1.7v2.4c0,1,0.5,1.7,1.6,1.7
								c1.1,0,1.6-0.6,1.6-1.7V60.3z"/>
							<path class="st18" d="M168.5,65.2c-0.1,0-0.1,0-0.2-0.1l-1.4-2.7h-1.1v2.7c0,0.1-0.1,0.1-0.1,0.1h-1c-0.1,0-0.1-0.1-0.1-0.1
								v-7.5h2.6c1.7,0,2.4,0.9,2.4,2.2v0.5c0,0.9-0.4,1.6-1.3,2l1.5,2.9c0,0.1,0,0.1-0.1,0.1H168.5z M168.2,59.9
								c0-0.8-0.4-1.2-1.3-1.2h-1.1v2.6h1.2c0.9,0,1.3-0.4,1.3-1.2V59.9z"/>
							<path class="st18" d="M176.1,65.2c-0.1,0-0.1-0.1-0.2-0.1l-0.6-1.9h-2.5l-0.6,1.9c0,0.1-0.1,0.1-0.2,0.1h-0.9
								c-0.1,0-0.1-0.1-0.1-0.2l2.3-7.3c0-0.1,0.1-0.2,0.2-0.2h1.1c0.1,0,0.2,0.1,0.2,0.2l2.3,7.3c0,0.1,0,0.2-0.1,0.2H176.1z
								 M174.2,58.9l-1,3.2h1.9L174.2,58.9z"/>
							<path class="st18" d="M183.2,62.1h-1.3c-0.1,0-0.1-0.1-0.1-0.1v-0.7c0-0.1,0-0.1,0.1-0.1h2.4c0.1,0,0.2,0.1,0.2,0.1v1.5
								c0,1.5-1.1,2.5-2.8,2.5c-1.8,0-2.8-0.9-2.8-2.6V60c0-1.6,1.1-2.5,2.8-2.5c1.6,0,2.3,0.8,2.6,1.7c0.1,0.2,0,0.3-0.1,0.3
								l-0.8,0.2c-0.1,0-0.2,0-0.3-0.1c-0.2-0.6-0.6-1-1.5-1c-1,0-1.6,0.5-1.6,1.6v2.5c0,1.2,0.7,1.6,1.6,1.6c0.8,0,1.6-0.4,1.6-1.6
								V62.1z"/>
							<path class="st18" d="M186.7,65.2v-7.7h4.1c0.1,0,0.1,0.1,0.1,0.2v0.8c0,0.1,0,0.1-0.1,0.1H188v2.1h2.6
								c0.1,0,0.1,0.1,0.1,0.1v0.8c0,0.1,0,0.1-0.1,0.1H188v2.3h2.9c0.1,0,0.1,0.1,0.1,0.1v0.8c0,0.1,0,0.1-0.1,0.1H186.7z"/>
						</g>
					</g>
					<g>
						<polygon class="st19" points="172.4,19.3 172.4,27.4 181.6,27.4 181.6,27.4 181.6,52.5 190.8,52.5 190.8,27.4 190.8,27.4 
							200,27.4 200,19.3 						"/>
						<polygon class="st19" points="114.5,39.4 125.6,39.4 125.6,32.2 114.5,32.2 114.5,27.1 132.1,27.1 132.1,19.3 105.4,19.3 
							105.4,52.5 132.1,52.5 132.1,44.7 114.5,44.7 						"/>
						<g>
							<path class="st19" d="M79.9,44.6c0-6,0.7-7.8,5.3-13.2c1.6-1.9,7.3-8.2,10.8-12.1h-4.6L79.9,32.8V19.3h-9.2v33.2h9.2
								C79.9,52.5,79.9,45,79.9,44.6z"/>
							<path class="st19" d="M89.7,33.6l12.6-14.3h-4.5c-2,2.3-7.8,8.7-9.6,10.8c-3.7,4.3-5.7,8.3-3.6,12c1.9,3.3,6.6,10.4,6.6,10.4
								h11.1L89.7,33.6z"/>
						</g>
						<polygon class="st19" points="158.9,19.3 168,19.3 168,52.5 159.9,52.5 145.7,34.1 145.7,52.5 136.5,52.5 136.5,19.3 
							145.2,19.3 158.9,36.9 						"/>
					</g>
				</g>
			</g>
		</g>
	</g>
</g>
</svg>
